<svg width="17" height="20" viewBox="0 0 17 20" fill="none" xmlns="http://www.w3.org/2000/svg">
<g clip-path="url(#clip0_98_327)">
<path d="M11.46 13.8899C11.1345 14.2153 11.1345 14.743 11.46 15.0684C11.7854 15.3939 12.3131 15.3939 12.6385 15.0684L16.5265 11.1805C17.1774 10.5295 17.1774 9.47429 16.5265 8.82338L12.6361 4.93304C12.3107 4.60763 11.7831 4.60763 11.4576 4.93304C11.1322 5.25846 11.1322 5.78613 11.4576 6.11154L14.5126 9.16663H1.5306C1.07035 9.16663 0.697262 9.53971 0.697262 9.99996C0.697262 10.4601 1.07035 10.8333 1.5306 10.8333H14.5166L11.46 13.8899Z" fill="#151515"/>
</g>
<defs>
<clipPath id="clip0_98_327">
<rect width="17" height="20" fill="white" transform="matrix(-1 0 0 -1 17 20)"/>
</clipPath>
</defs>
</svg>
