<svg width="20" height="20" viewBox="0 0 20 20" fill="none" xmlns="http://www.w3.org/2000/svg">
<g clip-path="url(#clip0_98_306)">
<path d="M10 12.5309C11.3807 12.5309 12.5 11.4162 12.5 10.0412C12.5 8.66619 11.3807 7.55151 10 7.55151C8.61929 7.55151 7.5 8.66619 7.5 10.0412C7.5 11.4162 8.61929 12.5309 10 12.5309Z" stroke="#676767" stroke-width="1.5"/>
<path d="M11.3285 2.20081C11.0222 2.07446 10.6339 2.07446 9.85734 2.07446C9.08076 2.07446 8.69251 2.07446 8.38617 2.20081C7.97781 2.36927 7.65336 2.69239 7.4842 3.09908C7.40698 3.28474 7.37676 3.50065 7.36493 3.81558C7.34756 4.27841 7.10922 4.70681 6.70645 4.93839C6.3037 5.16995 5.812 5.16131 5.40083 4.94489C5.12105 4.79761 4.91818 4.71572 4.71812 4.68949C4.27987 4.63203 3.83666 4.7503 3.48597 5.01828C3.22296 5.21927 3.02881 5.55415 2.64053 6.2239C2.25225 6.89366 2.0581 7.22854 2.01483 7.55587C1.95714 7.99231 2.0759 8.4337 2.34499 8.78296C2.4678 8.94238 2.64042 9.07632 2.90833 9.24396C3.30217 9.49044 3.55558 9.91029 3.55556 10.3735C3.55553 10.8366 3.30213 11.2564 2.90832 11.5028C2.64038 11.6705 2.46774 11.8045 2.3449 11.964C2.07581 12.3132 1.95706 12.7545 2.01476 13.191C2.05802 13.5183 2.25216 13.8532 2.64045 14.523C3.02874 15.1927 3.22288 15.5276 3.48589 15.7285C3.83657 15.9965 4.27979 16.1148 4.71804 16.0574C4.91808 16.0311 5.12094 15.9492 5.4007 15.802C5.8119 15.5856 6.30364 15.5769 6.70642 15.8085C7.1092 16.0401 7.34756 16.4685 7.36493 16.9314C7.37676 17.2463 7.40698 17.4622 7.4842 17.6479C7.65336 18.0545 7.97781 18.3777 8.38617 18.5461C8.69251 18.6725 9.08076 18.6725 9.85734 18.6725C10.6339 18.6725 11.0222 18.6725 11.3285 18.5461C11.7368 18.3777 12.0613 18.0545 12.2304 17.6479C12.3077 17.4622 12.3379 17.2463 12.3498 16.9313C12.3671 16.4685 12.6054 16.0401 13.0082 15.8085C13.4109 15.5768 13.9027 15.5856 14.3139 15.802C14.5937 15.9492 14.7965 16.031 14.9965 16.0573C15.4348 16.1148 15.878 15.9965 16.2287 15.7285C16.4917 15.5275 16.6858 15.1927 17.0741 14.5229C17.4624 13.8531 17.6566 13.5183 17.6998 13.191C17.7575 12.7545 17.6388 12.3131 17.3697 11.9639C17.2468 11.8045 17.0742 11.6704 16.8063 11.5028C16.4125 11.2564 16.1591 10.8365 16.1591 10.3734C16.1591 9.91021 16.4125 9.49053 16.8063 9.24413C17.0743 9.07641 17.2469 8.94246 17.3698 8.78296C17.6388 8.43376 17.7576 7.99237 17.6999 7.55592C17.6567 7.2286 17.4625 6.89371 17.0742 6.22396C16.6859 5.55421 16.4918 5.21933 16.2288 5.01834C15.8781 4.75036 15.4348 4.63209 14.9966 4.68955C14.7966 4.71578 14.5938 4.79766 14.3139 4.94492C13.9028 5.16135 13.411 5.17 13.0083 4.93841C12.6054 4.70683 12.3671 4.27839 12.3498 3.81554C12.3379 3.50063 12.3077 3.28473 12.2304 3.09908C12.0613 2.69239 11.7368 2.36927 11.3285 2.20081Z" stroke="#676767" stroke-width="1.5"/>
</g>
<defs>
<clipPath id="clip0_98_306">
<rect width="20" height="20" fill="white"/>
</clipPath>
</defs>
</svg>
