<svg width="31" height="34" viewBox="0 0 31 34" fill="none" xmlns="http://www.w3.org/2000/svg">
<path d="M6.37673 33.1686V8.03739V7.2872L0 3.91137V29.4177C0.375102 31.2931 2.62571 33.9188 6.37673 33.1686Z" fill="url(#paint0_linear_60_329)"/>
<path d="M0 3.91158L22.131 16.6645L28.5077 12.9136L8.62734 1.28593C3.75102 -2.09005 0.375102 2.03647 0 3.91158Z" fill="url(#paint1_linear_60_329)"/>
<path d="M28.507 12.9136L6.37598 25.6667V33.1686L25.5062 22.2909C28.507 20.7905 28.6149 20.3606 29.2572 19.2902C31.0577 16.2894 29.2572 13.6638 28.507 12.9136Z" fill="url(#paint2_linear_60_329)"/>
<defs>
<linearGradient id="paint0_linear_60_329" x1="3.18837" y1="3.91137" x2="3.18837" y2="33.3" gradientUnits="userSpaceOnUse">
<stop stop-color="#2FCB38"/>
<stop offset="1" stop-color="#29B9DC"/>
</linearGradient>
<linearGradient id="paint1_linear_60_329" x1="1.87551" y1="1.66081" x2="25.8818" y2="14.7896" gradientUnits="userSpaceOnUse">
<stop stop-color="#FEC200"/>
<stop offset="1" stop-color="#F47609"/>
</linearGradient>
<linearGradient id="paint2_linear_60_329" x1="5.62577" y1="29.7928" x2="30.7573" y2="15.5387" gradientUnits="userSpaceOnUse">
<stop stop-color="#FA2177"/>
<stop offset="1" stop-color="#E14BCB"/>
</linearGradient>
</defs>
</svg>
